<svg width="2024" height="1177" viewBox="0 0 2024 1177" fill="none" xmlns="http://www.w3.org/2000/svg">
<path d="M1067.01 268.532V13.874L1271.98 82.197L1371.36 690.893L1421.05 678.47V231.265L1619.81 187.787V641.203L1700.55 616.359L1725.4 734.371L1930.37 690.893L2011.11 1100.83L1439.68 1162.94L1414.84 1007.66L1067.01 964.185V268.532Z" fill="#EB1415"/>
<path d="M1421.05 678.47L1371.36 690.893L1271.98 82.197L1067.01 13.874V268.532V964.185L1414.84 1007.66M1421.05 678.47V231.265L1619.81 187.787V641.203M1421.05 678.47L1619.81 641.203M1619.81 641.203L1700.55 616.359L1725.4 734.371M1725.4 734.371L1930.37 690.893L2011.11 1100.83L1439.68 1162.94L1414.84 1007.66M1725.4 734.371L1775.09 1020.09L1414.84 1007.66" stroke="black" stroke-width="20"/>
<path d="M321.67 871.012V1057.35L11.1111 1150.52L60.8005 516.975L271.981 461.074L327.881 523.186L396.204 231.26L638.44 169.149L657.074 305.795L1035.96 138.093L1172.6 392.751L880.676 523.186L998.689 597.72V728.155L812.353 784.056L849.62 846.167L1172.6 715.733L1166.39 1007.66L594.962 1162.94V989.024L483.161 1007.66L321.67 871.012Z" fill="#EB1415"/>
<path d="M657.074 305.795L638.44 169.149L396.204 231.26L327.881 523.186L271.981 461.074L60.8005 516.975L11.1111 1150.52L321.67 1057.35V871.012L483.161 1007.66L594.962 989.024M657.074 305.795L1035.96 138.093L1172.6 392.751L880.676 523.186L998.689 597.72V728.155L812.353 784.056L849.62 846.167L1172.6 715.733L1166.39 1007.66L594.962 1162.94V989.024M657.074 305.795L700.552 957.969L594.962 989.024" stroke="black" stroke-width="20"/>
</svg>
